<?xml version="1.0" encoding="UTF-8" standalone="no"?>
<!-- Created with Inkscape (http://www.inkscape.org/) -->

<svg
   xmlns:dc="http://purl.org/dc/elements/1.1/"
   xmlns:cc="http://creativecommons.org/ns#"
   xmlns:rdf="http://www.w3.org/1999/02/22-rdf-syntax-ns#"
   xmlns:svg="http://www.w3.org/2000/svg"
   xmlns="http://www.w3.org/2000/svg"
   xmlns:sodipodi="http://sodipodi.sourceforge.net/DTD/sodipodi-0.dtd"
   xmlns:inkscape="http://www.inkscape.org/namespaces/inkscape"
   width="11.4929mm"
   height="11.209464mm"
   viewBox="0 0 11.4929 11.209464"
   version="1.1"
   id="svg8"
   inkscape:version="0.92.3 (2405546, 2019-03-11)"
   sodipodi:docname="github.svg">
  <defs
     id="defs2" />
  <sodipodi:namedview
     id="base"
     pagecolor="#ffffff"
     bordercolor="#666666"
     borderopacity="1.0"
     inkscape:pageopacity="0.0"
     inkscape:pageshadow="2"
     inkscape:zoom="3.959798"
     inkscape:cx="11.038011"
     inkscape:cy="-32.297923"
     inkscape:document-units="mm"
     inkscape:current-layer="layer1"
     showgrid="false"
     fit-margin-top="0"
     fit-margin-left="0"
     fit-margin-right="0"
     fit-margin-bottom="0"
     inkscape:window-width="1920"
     inkscape:window-height="1013"
     inkscape:window-x="-9"
     inkscape:window-y="-9"
     inkscape:window-maximized="1"
     inkscape:pagecheckerboard="true" />
  <metadata
     id="metadata5">
    <rdf:RDF>
      <cc:Work
         rdf:about="">
        <dc:format>image/svg+xml</dc:format>
        <dc:type
           rdf:resource="http://purl.org/dc/dcmitype/StillImage" />
        <dc:title></dc:title>
      </cc:Work>
    </rdf:RDF>
  </metadata>
  <g
     inkscape:label="Layer 1"
     inkscape:groupmode="layer"
     id="layer1">
    <path
       inkscape:connector-curvature="0"
       id="path829-6"
       style="fill:#fffcfb;fill-opacity:1;fill-rule:evenodd;stroke:none;stroke-width:0.03527778;stroke-opacity:1"
       d="M 5.7460402,0 C 2.5731602,0 0,2.57281 0,5.7467499 c 0,2.53859 1.6464102,4.6926491 3.9299402,5.4528881 0.28751,0.0526 0.39229,-0.12489 0.39229,-0.27729 0,-0.13652 -0.005,-0.497769 -0.008,-0.9771886 -1.59844,0.3471296 -1.93569,-0.7704698 -1.93569,-0.7704698 -0.26141,-0.6639197 -0.63818,-0.8406697 -0.63818,-0.8406697 -0.5217602,-0.3563 0.0395,-0.34925 0.0395,-0.34925 0.5768,0.0406 0.88018,0.59232 0.88018,0.59232 0.51259,0.8780594 1.34515,0.6244097 1.67252,0.4773097 0.0522,-0.3711297 0.20073,-0.6244197 0.36478,-0.7679997 -1.276,-0.14535 -2.61761,-0.63818 -2.61761,-2.84021 0,-0.6276 0.22401,-1.1401799 0.5916,-1.5419999 -0.0593,-0.14534 -0.25647,-0.72954 0.0564,-1.5208199 0,0 0.48225,-0.15452 1.58009,0.58878 0.45826,-0.12735 0.95003,-0.19085 1.43863,-0.19332 0.48824,0.002 0.97966,0.066 1.43863,0.19332 1.09713,-0.7433 1.57868,-0.58878 1.57868,-0.58878 0.31362,0.7912799 0.11641,1.3754799 0.0575,1.5208199 0.3683,0.40182 0.5905498,0.9143999 0.5905498,1.5419999 0,2.20768 -1.3437298,2.69345 -2.6236098,2.83562 0.20602,0.17745 0.38982,0.52811 0.38982,1.0643297 0,0.7679994 -0.007,1.3878284 -0.007,1.5762084 0,0.15382 0.10372,0.33267 0.39511,0.27658 C 9.8479,10.437279 11.4929,8.2849899 11.4929,5.7467499 11.4929,2.57281 8.9197402,0 5.7458002,0" />
  </g>
</svg>
