<?xml version="1.0" encoding="UTF-8" standalone="no"?>
<svg
   id="Logo_FIXED"
   data-name="Logo — FIXED"
   viewBox="0 0 56.297806 45.744888"
   version="1.1"
   sodipodi:docname="twitter.svg"
   width="56.297806"
   height="45.744888"
   inkscape:version="1.4 (86a8ad7, 2024-10-11)"
   xmlns:inkscape="http://www.inkscape.org/namespaces/inkscape"
   xmlns:sodipodi="http://sodipodi.sourceforge.net/DTD/sodipodi-0.dtd"
   xmlns="http://www.w3.org/2000/svg"
   xmlns:svg="http://www.w3.org/2000/svg"
   xmlns:rdf="http://www.w3.org/1999/02/22-rdf-syntax-ns#"
   xmlns:cc="http://creativecommons.org/ns#"
   xmlns:dc="http://purl.org/dc/elements/1.1/">
  <metadata
     id="metadata15">
    <rdf:RDF>
      <cc:Work
         rdf:about="">
        <dc:format>image/svg+xml</dc:format>
        <dc:type
           rdf:resource="http://purl.org/dc/dcmitype/StillImage" />
        <dc:title>Twitter_Logo_Blue</dc:title>
      </cc:Work>
    </rdf:RDF>
  </metadata>
  <sodipodi:namedview
     pagecolor="#ffffff"
     bordercolor="#666666"
     borderopacity="1"
     objecttolerance="10"
     gridtolerance="10"
     guidetolerance="10"
     inkscape:pageopacity="0"
     inkscape:pageshadow="2"
     inkscape:window-width="1920"
     inkscape:window-height="1094"
     id="namedview13"
     showgrid="false"
     inkscape:zoom="2.36"
     inkscape:cx="80.084746"
     inkscape:cy="-3.6016949"
     inkscape:window-x="-11"
     inkscape:window-y="-11"
     inkscape:window-maximized="1"
     inkscape:current-layer="Logo_FIXED"
     fit-margin-top="0"
     fit-margin-left="0"
     fit-margin-right="0"
     fit-margin-bottom="0"
     inkscape:pagecheckerboard="true"
     inkscape:showpageshadow="2"
     inkscape:deskcolor="#d1d1d1" />
  <defs
     id="defs4">
    <style
       id="style2">.cls-1{fill:none;}.cls-2{fill:#1da1f2;}</style>
  </defs>
  <title
     id="title6">Twitter_Logo_Blue</title>
  <rect
     class="cls-1"
     width="57.251999"
     height="50.00008"
     id="rect8"
     ry="1.0593237"
     x="-0.095398679"
     y="-3.0865262"
     style="fill:none;stroke-width:0.133758" />
  <path
     class="cls-2"
     d="m 17.704555,45.744888 c 21.24454,0 32.8644,-17.60094 32.8644,-32.864405 0,-0.499924 0,-0.997597 -0.0338,-1.493017 a 23.500954,23.500954 0 0 0 5.76265,-5.9788268 23.055075,23.055075 0 0 1 -6.63414,1.817293 11.590591,11.590591 0 0 0 5.07806,-6.38867395 A 23.147403,23.147403 0 0 1 47.407255,3.6408882 11.561316,11.561316 0 0 0 27.723285,14.175333 32.792343,32.792343 0 0 1 3.918325,2.1073362 11.559064,11.559064 0 0 0 7.494365,17.526178 11.464484,11.464484 0 0 1 2.251915,16.08045 c 0,0.04729 0,0.09683 0,0.146375 a 11.55456,11.55456 0 0 0 9.26662,11.322613 11.532041,11.532041 0 0 1 -5.21543,0.19817 11.563568,11.563568 0 0 0 10.79116,8.02131 23.176678,23.176678 0 0 1 -14.34468,4.95421 A 23.512213,23.512213 0 0 1 0,40.556478 a 32.700015,32.700015 0 0 0 17.704535,5.1794"
     id="path10"
     inkscape:connector-curvature="0"
     style="fill:#ffffff;fill-opacity:1;stroke-width:0.225191" />
</svg>
