<?xml version="1.0" encoding="UTF-8" standalone="no"?>
<!-- Created with Inkscape (http://www.inkscape.org/) -->

<svg
   xmlns:dc="http://purl.org/dc/elements/1.1/"
   xmlns:cc="http://creativecommons.org/ns#"
   xmlns:rdf="http://www.w3.org/1999/02/22-rdf-syntax-ns#"
   xmlns:svg="http://www.w3.org/2000/svg"
   xmlns="http://www.w3.org/2000/svg"
   xmlns:sodipodi="http://sodipodi.sourceforge.net/DTD/sodipodi-0.dtd"
   xmlns:inkscape="http://www.inkscape.org/namespaces/inkscape"
   width="1200"
   height="1200"
   viewBox="0 0 317.49998 317.5"
   version="1.1"
   id="svg8"
   inkscape:version="0.92.3 (2405546, 2018-03-11)"
   sodipodi:docname="drawing.svg">
  <defs
     id="defs2">
    <inkscape:path-effect
       effect="bspline"
       id="path-effect1736"
       is_visible="true"
       weight="33.333333"
       steps="2"
       helper_size="0"
       apply_no_weight="true"
       apply_with_weight="true"
       only_selected="false" />
    <inkscape:path-effect
       effect="bspline"
       id="path-effect1718"
       is_visible="true"
       weight="33.333333"
       steps="2"
       helper_size="0"
       apply_no_weight="true"
       apply_with_weight="true"
       only_selected="false" />
    <inkscape:path-effect
       effect="bspline"
       id="path-effect1688"
       is_visible="true"
       weight="33.333333"
       steps="2"
       helper_size="0"
       apply_no_weight="true"
       apply_with_weight="true"
       only_selected="false" />
    <inkscape:path-effect
       effect="bspline"
       id="path-effect1662"
       is_visible="true"
       weight="33.333333"
       steps="2"
       helper_size="0"
       apply_no_weight="true"
       apply_with_weight="true"
       only_selected="false" />
    <inkscape:path-effect
       effect="bspline"
       id="path-effect1658"
       is_visible="true"
       weight="33.333333"
       steps="2"
       helper_size="0"
       apply_no_weight="true"
       apply_with_weight="true"
       only_selected="false" />
    <inkscape:path-effect
       effect="bspline"
       id="path-effect1607"
       is_visible="true"
       weight="33.333333"
       steps="2"
       helper_size="0"
       apply_no_weight="true"
       apply_with_weight="true"
       only_selected="false" />
    <inkscape:path-effect
       effect="bspline"
       id="path-effect1567"
       is_visible="true"
       weight="33.333333"
       steps="2"
       helper_size="0"
       apply_no_weight="true"
       apply_with_weight="true"
       only_selected="false" />
    <inkscape:path-effect
       effect="bspline"
       id="path-effect1541"
       is_visible="true"
       weight="33.333333"
       steps="2"
       helper_size="0"
       apply_no_weight="true"
       apply_with_weight="true"
       only_selected="false" />
    <inkscape:path-effect
       effect="bspline"
       id="path-effect1537"
       is_visible="true"
       weight="33.333333"
       steps="2"
       helper_size="0"
       apply_no_weight="true"
       apply_with_weight="true"
       only_selected="false" />
    <inkscape:path-effect
       effect="bspline"
       id="path-effect1533"
       is_visible="true"
       weight="33.333333"
       steps="2"
       helper_size="0"
       apply_no_weight="true"
       apply_with_weight="true"
       only_selected="false" />
    <inkscape:path-effect
       effect="bspline"
       id="path-effect1525"
       is_visible="true"
       weight="33.333333"
       steps="2"
       helper_size="0"
       apply_no_weight="true"
       apply_with_weight="true"
       only_selected="false" />
    <inkscape:path-effect
       effect="bspline"
       id="path-effect1513"
       is_visible="true"
       weight="33.333333"
       steps="2"
       helper_size="0"
       apply_no_weight="true"
       apply_with_weight="true"
       only_selected="false" />
    <inkscape:path-effect
       effect="bspline"
       id="path-effect1508"
       is_visible="true"
       weight="33.333333"
       steps="2"
       helper_size="0"
       apply_no_weight="true"
       apply_with_weight="true"
       only_selected="false" />
    <inkscape:path-effect
       effect="bspline"
       id="path-effect1504"
       is_visible="true"
       weight="33.333333"
       steps="2"
       helper_size="0"
       apply_no_weight="true"
       apply_with_weight="true"
       only_selected="false" />
    <inkscape:path-effect
       effect="bspline"
       id="path-effect1500"
       is_visible="true"
       weight="33.333333"
       steps="2"
       helper_size="0"
       apply_no_weight="true"
       apply_with_weight="true"
       only_selected="false" />
    <inkscape:path-effect
       effect="bspline"
       id="path-effect1495"
       is_visible="true"
       weight="33.333333"
       steps="2"
       helper_size="0"
       apply_no_weight="true"
       apply_with_weight="true"
       only_selected="false" />
    <inkscape:path-effect
       effect="bspline"
       id="path-effect1491"
       is_visible="true"
       weight="33.333333"
       steps="2"
       helper_size="0"
       apply_no_weight="true"
       apply_with_weight="true"
       only_selected="false" />
    <inkscape:path-effect
       effect="bspline"
       id="path-effect1487"
       is_visible="true"
       weight="33.333333"
       steps="2"
       helper_size="0"
       apply_no_weight="true"
       apply_with_weight="true"
       only_selected="false" />
    <inkscape:path-effect
       effect="bspline"
       id="path-effect1463"
       is_visible="true"
       weight="33.333333"
       steps="2"
       helper_size="0"
       apply_no_weight="true"
       apply_with_weight="true"
       only_selected="false" />
    <inkscape:path-effect
       effect="bspline"
       id="path-effect1459"
       is_visible="true"
       weight="33.333333"
       steps="2"
       helper_size="0"
       apply_no_weight="true"
       apply_with_weight="true"
       only_selected="false" />
    <inkscape:path-effect
       effect="bspline"
       id="path-effect1451"
       is_visible="true"
       weight="33.333333"
       steps="2"
       helper_size="0"
       apply_no_weight="true"
       apply_with_weight="true"
       only_selected="false" />
    <inkscape:path-effect
       effect="bspline"
       id="path-effect1447"
       is_visible="true"
       weight="33.333333"
       steps="2"
       helper_size="0"
       apply_no_weight="true"
       apply_with_weight="true"
       only_selected="false" />
    <inkscape:path-effect
       effect="bspline"
       id="path-effect1567-8"
       is_visible="true"
       weight="33.333333"
       steps="2"
       helper_size="0"
       apply_no_weight="true"
       apply_with_weight="true"
       only_selected="false" />
    <inkscape:path-effect
       effect="bspline"
       id="path-effect1567-4"
       is_visible="true"
       weight="33.333333"
       steps="2"
       helper_size="0"
       apply_no_weight="true"
       apply_with_weight="true"
       only_selected="false" />
    <inkscape:path-effect
       effect="bspline"
       id="path-effect1607-5"
       is_visible="true"
       weight="33.333333"
       steps="2"
       helper_size="0"
       apply_no_weight="true"
       apply_with_weight="true"
       only_selected="false" />
    <inkscape:path-effect
       effect="bspline"
       id="path-effect1662-9"
       is_visible="true"
       weight="33.333333"
       steps="2"
       helper_size="0"
       apply_no_weight="true"
       apply_with_weight="true"
       only_selected="false" />
    <inkscape:path-effect
       effect="bspline"
       id="path-effect1688-2"
       is_visible="true"
       weight="33.333333"
       steps="2"
       helper_size="0"
       apply_no_weight="true"
       apply_with_weight="true"
       only_selected="false" />
    <inkscape:path-effect
       effect="bspline"
       id="path-effect1736-9"
       is_visible="true"
       weight="33.333333"
       steps="2"
       helper_size="0"
       apply_no_weight="true"
       apply_with_weight="true"
       only_selected="false" />
    <inkscape:path-effect
       effect="bspline"
       id="path-effect1736-0"
       is_visible="true"
       weight="33.333333"
       steps="2"
       helper_size="0"
       apply_no_weight="true"
       apply_with_weight="true"
       only_selected="false" />
  </defs>
  <sodipodi:namedview
     id="base"
     pagecolor="#ffffff"
     bordercolor="#666666"
     borderopacity="1.0"
     inkscape:pageopacity="0.0"
     inkscape:pageshadow="2"
     inkscape:zoom="0.58375"
     inkscape:cx="675.17481"
     inkscape:cy="740.71913"
     inkscape:document-units="mm"
     inkscape:current-layer="layer1"
     showgrid="false"
     units="px"
     inkscape:snap-page="true"
     inkscape:window-width="1920"
     inkscape:window-height="1013"
     inkscape:window-x="-9"
     inkscape:window-y="-9"
     inkscape:window-maximized="1" />
  <metadata
     id="metadata5">
    <rdf:RDF>
      <cc:Work
         rdf:about="">
        <dc:format>image/svg+xml</dc:format>
        <dc:type
           rdf:resource="http://purl.org/dc/dcmitype/StillImage" />
        <dc:title></dc:title>
      </cc:Work>
    </rdf:RDF>
  </metadata>
  <g
     inkscape:label="Layer 1"
     inkscape:groupmode="layer"
     id="layer1"
     transform="translate(0,20.50002)"
     style="display:inline">
    <rect
       style="fill:none;stroke:#00010a;stroke-width:1.58749998;stroke-linecap:round;stroke-miterlimit:4;stroke-dasharray:none;stroke-opacity:1"
       id="rect1366"
       width="23.239088"
       height="19.946001"
       x="98.714249"
       y="100.55949"
       ry="5.6556597" />
    <ellipse
       style="fill:#000000;fill-opacity:1;stroke:#00010a;stroke-width:0.32415885;stroke-linecap:round;stroke-miterlimit:4;stroke-dasharray:none;stroke-opacity:1"
       id="path1374"
       cx="117.60709"
       cy="112.04052"
       rx="2.5722654"
       ry="2.5688033" />
    <path
       style="fill:#cbcbcb;fill-opacity:1;stroke:#00010a;stroke-width:1.03769583;stroke-linecap:round;stroke-miterlimit:4;stroke-dasharray:none;stroke-opacity:1"
       d="m 121.84156,56.4951 c -19.54829,-3e-5 -38.915443,9.444362 -37.546544,35.729601 0.0075,0.44745 7.13718,41.659719 8.454265,3.780647 L 123.8833,92.102744 c 3.26052,-1.146344 8.80111,-2.961278 12.77131,-4.559927 4.26802,-1.718572 6.60955,-3.153812 6.13761,-2.096513 -0.35004,0.784206 -2.24969,2.939227 -4.60954,4.863785 l 14.88385,-1.865519 c -1.01183,46.09468 4.74323,8.861528 4.75681,8.413956 C 159.38779,63.988497 141.38971,56.49528 121.84156,56.4951 Z"
       id="path1396"
       inkscape:connector-curvature="0" />
    <rect
       style="fill:none;stroke:#00010a;stroke-width:1.58749998;stroke-linecap:round;stroke-miterlimit:4;stroke-dasharray:none;stroke-opacity:1"
       id="rect1366-3"
       width="23.239088"
       height="19.946001"
       x="129.49274"
       y="101.6142"
       ry="5.6556597" />
    <ellipse
       style="fill:#000000;fill-opacity:1;stroke:#00010a;stroke-width:0.32415885;stroke-linecap:round;stroke-miterlimit:4;stroke-dasharray:none;stroke-opacity:1"
       id="path1374-5"
       cx="148.38556"
       cy="112.79606"
       rx="2.5722654"
       ry="2.5688033" />
    <path
       style="fill:none;stroke:#000000;stroke-width:0.97247654;stroke-linecap:butt;stroke-linejoin:miter;stroke-opacity:1"
       d="m 126.72396,110.68265 c 0.60156,2.94981 1.20315,5.89976 3.53436,8.88677 2.3312,2.98701 6.39193,6.0109 6.42963,7.92219 0.0377,1.91128 -3.94785,2.71005 -7.29428,3.30915 -3.34643,0.59909 -6.05341,0.99844 -7.55753,0.51337 -1.50413,-0.48507 -1.80489,-1.85424 -1.42881,-2.76709 0.37608,-0.91285 1.42897,-1.36934 2.55673,-1.31227 1.12776,0.0571 2.33124,0.62775 3.5343,1.19825"
       id="path1445"
       inkscape:connector-curvature="0"
       inkscape:path-effect="#path-effect1447"
       inkscape:original-d="m 126.72396,110.68265 c 0.60187,2.94975 1.20346,5.8997 1.80477,8.84984 4.06095,3.02373 8.12168,6.04762 12.18219,9.07168 -3.9853,0.7986 -7.97084,1.59737 -11.95659,2.39631 -2.70711,0.39923 -5.41409,0.79859 -8.12147,1.19814 -0.3006,-1.36961 -0.60136,-2.73879 -0.90238,-4.10793 1.0529,-0.45657 2.10579,-0.91305 3.15835,-1.36932 1.2031,0.57024 2.40658,1.14092 3.60953,1.71165"
       sodipodi:nodetypes="cccccccc" />
    <path
       style="fill:none;stroke:#000000;stroke-width:1.58749998;stroke-linecap:butt;stroke-linejoin:miter;stroke-miterlimit:4;stroke-dasharray:none;stroke-opacity:1"
       d="m 153.72834,106.7307 c 0,3.02756 0,6.05531 0.7037,8.91149 0.70371,2.85617 2.15981,5.63349 0.94597,9.19554 -1.21384,3.56205 -5.07328,7.95513 -8.06139,12.05157 -2.98811,4.09643 -5.10454,7.89578 -6.62095,11.19364 -1.51641,3.29786 -2.46769,6.20095 -4.3975,7.86335 -1.92981,1.6624 -4.85538,2.13731 -8.55947,2.31543 -3.7041,0.17812 -8.18583,0.0594 -13.38397,-3.08721 -5.19815,-3.14661 -11.11174,-9.32059 -14.00627,-12.43744 -2.894542,-3.11685 -2.77006,-3.17622 -2.645779,-3.23548"
       inkscape:connector-curvature="0"
       id="path1461"
       inkscape:path-effect="#path-effect1463"
       inkscape:original-d="m 153.72834,106.7307 c 2e-4,3.02756 2e-4,6.05531 0,9.08323 1.43204,2.67152 2.86373,5.46164 4.29532,8.19272 -3.85947,4.39314 -7.71892,8.78622 -11.57865,13.1796 -2.11643,3.79952 -4.23286,7.59887 -6.34957,11.39857 -0.93363,2.79026 -1.86734,5.69911 -2.80129,8.54893 -2.92581,0.4748 -5.85138,0.9497 -8.77735,1.42483 -4.48219,-0.11893 -8.96392,-0.23766 -13.44616,-0.35621 -5.91387,-6.17465 -11.82746,-12.34863 -17.741465,-18.52267 0.124688,-0.0596 0.249189,-0.11892 0.373506,-0.17811" />
    <path
       style="fill:none;stroke:#000000;stroke-width:1.58749998;stroke-linecap:butt;stroke-linejoin:miter;stroke-miterlimit:4;stroke-dasharray:none;stroke-opacity:1"
       d="m 106.88915,141.33376 c 6.41479,-1.5146 12.82926,-3.02913 17.14992,-2.89549 4.32066,0.13364 6.54801,1.91553 8.77523,3.6973"
       id="path1485"
       inkscape:connector-curvature="0"
       inkscape:original-d="m 106.88915,141.33376 c 6.41474,-1.5148 12.82921,-3.02932 19.24341,-4.54358 2.2274,1.78144 4.45476,3.56332 6.68174,5.34539"
       inkscape:path-effect="#path-effect1487" />
    <path
       style="fill:none;stroke:#000000;stroke-width:1.35306072;stroke-linecap:butt;stroke-linejoin:miter;stroke-miterlimit:4;stroke-dasharray:none;stroke-opacity:1"
       d="m 109.30182,141.33376 c 0.71198,-3.02935 1.4239,-6.05841 2.49163,-6.45933 1.06773,-0.40093 2.49171,1.82655 3.9156,4.0539"
       id="path1489"
       inkscape:connector-curvature="0"
       inkscape:original-d="m 109.30182,141.33376 c 0.7121,-3.02932 1.42402,-6.05838 2.13574,-9.08717 1.42387,2.22675 2.84785,4.45423 4.27149,6.68174"
       inkscape:path-effect="#path-effect1491" />
    <path
       style="fill:none;stroke:#000000;stroke-width:1.58749998;stroke-linecap:round;stroke-linejoin:miter;stroke-miterlimit:4;stroke-dasharray:none;stroke-opacity:1"
       d="m 122.15025,115.02103 c 1.52481,-1.74857 3.04939,-3.49688 4.25103,-3.67758 1.20163,-0.18071 2.10813,1.24934 3.00093,2.65778"
       id="path1498"
       inkscape:connector-curvature="0"
       inkscape:path-effect="#path-effect1500"
       inkscape:original-d="m 122.15025,115.02103 c 1.52483,-1.74856 3.04941,-3.49686 4.57371,-5.24488 0.87926,1.38639 1.78576,2.81645 2.67825,4.22508"
       sodipodi:nodetypes="ccc" />
    <path
       style="fill:none;stroke:#000000;stroke-width:1.58749998;stroke-linecap:butt;stroke-linejoin:miter;stroke-miterlimit:4;stroke-dasharray:none;stroke-opacity:1"
       d="m 141.29996,110.03531 c 3.36186,-0.11332 6.72345,-0.22664 10.08476,-0.33994"
       id="path1502"
       inkscape:connector-curvature="0"
       inkscape:path-effect="#path-effect1504"
       inkscape:original-d="m 141.29996,110.03531 c 3.36185,-0.11358 6.72344,-0.22689 10.08476,-0.33994" />
    <path
       style="fill:none;stroke:#000000;stroke-width:1.58749998;stroke-linecap:butt;stroke-linejoin:miter;stroke-miterlimit:4;stroke-dasharray:none;stroke-opacity:1"
       d="m 111.04569,110.26193 c 2.00213,-1.54882 4.00398,-3.09742 5.53344,-3.09745 1.52947,-3e-5 2.58721,1.5488 3.64482,3.09745"
       id="path1506"
       inkscape:connector-curvature="0"
       inkscape:path-effect="#path-effect1508"
       inkscape:original-d="m 111.04569,110.26193 c 2.0021,-1.54886 4.00395,-3.09746 6.00553,-4.64579 1.05768,1.5481 2.11542,3.09693 3.17273,4.64579" />
    <path
       style="fill:none;stroke:#000000;stroke-width:1.75899625;stroke-linecap:butt;stroke-linejoin:miter;stroke-miterlimit:4;stroke-dasharray:none;stroke-opacity:1"
       d="m 91.618163,121.3187 c -0.908121,-4.32853 -1.816188,-8.65681 -3.445125,-10.62412 -1.628936,-1.96731 -3.979351,-1.57381 -5.58198,0.0985 -1.602629,1.67231 -2.457173,4.62304 -2.697587,7.96791 -0.240413,3.34487 0.133447,7.08244 1.041569,9.67304 0.908122,2.59059 2.350236,4.03325 3.899365,5.01698 1.549128,0.98374 3.205052,1.50839 4.631946,1.355 1.426895,-0.15339 2.686301,-1.02734 3.300417,-2.10928 0.614116,-1.08195 0.614116,-2.39389 -0.05356,2.65577 -0.667677,5.04966 -2.00311,16.46092 -3.338504,27.87185"
       id="path1511"
       inkscape:connector-curvature="0"
       inkscape:path-effect="#path-effect1513"
       inkscape:original-d="m 91.618163,121.3187 c -0.907801,-4.3286 -1.815869,-8.65688 -2.724203,-12.98484 -2.349904,0.39313 -4.70032,0.78663 -7.050878,1.18044 -0.854496,2.95115 -1.709039,5.90188 -2.563955,8.8533 0.374224,3.73824 0.748085,7.47581 1.12173,11.21419 1.442598,1.44255 2.884715,2.8852 4.326675,4.32829 1.65612,0.5243 3.312041,1.04896 4.967666,1.57392 1.228691,-0.78721 2.457389,-1.70541 3.685686,-2.55763 2.64e-4,-1.31158 2.64e-4,-2.62352 0,-3.93479 -1.335131,11.41062 -4.006182,34.23278 -4.006182,34.23278"
       sodipodi:nodetypes="cccccccccc" />
    <rect
       style="opacity:1;vector-effect:none;fill:#000000;fill-opacity:1;fill-rule:evenodd;stroke:#00010a;stroke-width:0.92496556;stroke-linecap:square;stroke-linejoin:miter;stroke-miterlimit:0;stroke-dasharray:none;stroke-dashoffset:0;stroke-opacity:1"
       id="rect1519"
       width="14.395714"
       height="167.14018"
       x="246.39423"
       y="31.224318"
       ry="5.6673532" />
    <path
       style="fill:none;stroke:#000000;stroke-width:1.58749998;stroke-linecap:butt;stroke-linejoin:miter;stroke-miterlimit:4;stroke-dasharray:none;stroke-opacity:1"
       d="m 248.37972,42.274784 c -4.23021,12.841702 -8.46044,25.683476 -9.82026,46.684378 -1.35983,21.000898 0.15094,50.158848 3.14387,68.242328 2.99293,18.08348 7.46783,25.09068 11.94285,32.09805"
       id="path1523"
       inkscape:connector-curvature="0"
       inkscape:path-effect="#path-effect1525"
       inkscape:original-d="m 248.37972,42.274784 c -4.23005,12.841753 -8.46028,25.683527 -12.69093,38.526052 1.51112,29.159214 3.02189,58.317164 4.53247,87.476794 4.47531,7.00714 8.95021,14.01434 13.42492,21.02191"
       sodipodi:nodetypes="cccc" />
    <path
       style="fill:none;stroke:#000000;stroke-width:1.58749998;stroke-linecap:butt;stroke-linejoin:miter;stroke-miterlimit:4;stroke-dasharray:none;stroke-opacity:1"
       d="m 129.17558,213.60241 c 9.21634,-6.34567 18.43238,-12.69114 23.79578,-16.01488 5.36341,-3.32374 6.87429,-3.62591 7.8948,-3.4454 1.02051,0.18051 1.69864,1.02817 2.60515,2.84118 0.90651,1.813 2.11511,4.68344 2.71947,8.30946 0.60436,3.62601 0.60436,8.00721 0.0757,10.27357 -0.52868,2.26635 -1.58619,2.41742 -2.4174,1.81286 -0.83122,-0.60456 -1.43538,-1.96392 -1.96414,-4.00346 -0.52876,-2.03954 -0.98205,-4.75927 -1.51082,-6.72324 -0.52878,-1.96397 -1.13315,-3.17272 -1.73743,-4.38128"
       id="path1565"
       inkscape:connector-curvature="0"
       inkscape:path-effect="#path-effect1567"
       inkscape:original-d="m 129.17558,213.60241 c 9.2163,-6.34573 18.43234,-12.6912 27.64811,-19.0364 1.51104,-0.30242 3.02192,-0.6046 4.53248,-0.9065 0.60447,0.60395 1.20892,1.51056 1.81299,2.26624 1.20897,2.87043 2.41758,5.74087 3.62598,8.61171 2.6e-4,4.38132 2.6e-4,8.76252 0,13.14418 -1.05738,0.15083 -2.11489,0.3019 -3.17273,0.45325 -0.60424,-1.36039 -1.2084,-2.71975 -1.813,-4.07923 -0.45294,-2.71951 -0.90623,-5.43924 -1.35974,-8.15846 -0.60402,-1.20883 -1.20839,-2.41758 -1.81299,-3.62598" />
    <path
       style="display:inline;fill:none;stroke:#000000;stroke-width:1.58749998;stroke-linecap:butt;stroke-linejoin:miter;stroke-miterlimit:4;stroke-dasharray:none;stroke-opacity:1"
       d="m 128.38946,183.6971 c 9.21634,-6.34567 18.43238,-12.69114 23.79578,-16.01488 5.36341,-3.32374 6.87429,-3.62591 7.8948,-3.4454 1.02051,0.18051 1.69864,1.02817 2.60515,2.84118 0.90651,1.813 2.11511,4.68344 2.71947,8.30946 0.60436,3.62601 0.60436,8.00721 0.0757,10.27357 -0.52868,2.26635 -1.58619,2.41742 -2.4174,1.81286 -0.83122,-0.60456 -1.43538,-1.96392 -1.96414,-4.00346 -0.52876,-2.03954 -0.98205,-4.75927 -1.51082,-6.72324 -0.52878,-1.96397 -1.13315,-3.17272 -1.73743,-4.38128"
       id="path1565-1"
       inkscape:connector-curvature="0"
       inkscape:path-effect="#path-effect1567-4"
       inkscape:original-d="m 128.38946,183.6971 c 9.2163,-6.34573 18.43234,-12.6912 27.64811,-19.0364 1.51104,-0.30242 3.02192,-0.6046 4.53248,-0.9065 0.60447,0.60395 1.20892,1.51056 1.81299,2.26624 1.20897,2.87043 2.41758,5.74087 3.62598,8.61171 2.6e-4,4.38132 2.6e-4,8.76252 0,13.14418 -1.05738,0.15083 -2.11489,0.3019 -3.17273,0.45325 -0.60424,-1.36039 -1.2084,-2.71975 -1.813,-4.07923 -0.45294,-2.71951 -0.90623,-5.43924 -1.35974,-8.15846 -0.60402,-1.20883 -1.20839,-2.41758 -1.81299,-3.62598" />
    <path
       style="fill:none;stroke:#000000;stroke-width:1.58749998;stroke-linecap:butt;stroke-linejoin:miter;stroke-miterlimit:4;stroke-dasharray:none;stroke-opacity:1"
       d="m 167.47524,229.16378 c 1.73746,9.36729 17.29896,11.18028 24.92867,12.16222 7.62972,0.98194 7.32755,1.13302 8.00815,-8.3197 0.6806,-9.45272 2.34076,-28.46912 3.10064,-37.70295 0.75988,-9.23383 0.59991,-8.59395 -2.27202,-8.51835 -2.87192,0.0756 -8.45909,-0.37742 -10.80084,-0.60406 -2.34175,-0.22663 -1.4353,-0.22663 -7.02361,8.23137 -5.58831,8.45801 -17.67845,25.38419 -15.94099,34.75147 z"
       id="path1605"
       inkscape:connector-curvature="0"
       inkscape:original-d="m 153.65096,236.71805 c 15.56177,1.81272 31.12327,3.62571 46.68451,5.43897 -0.30189,0.15081 -0.60406,0.3019 -0.90649,0.45324 1.66392,-19.05666 3.32408,-38.07306 4.98572,-57.1092 2.7e-4,0.60406 -0.3019,1.20839 -0.45325,1.81299 -5.59267,-0.45375 -11.17984,-0.90676 -16.77016,-1.35974 0.9068,-2.7e-4 1.81325,-2.7e-4 2.71949,0 -12.08282,16.91604 -24.17295,33.84222 -36.25982,50.76374 z"
       inkscape:path-effect="#path-effect1607" />
    <path
       style="display:inline;fill:none;stroke:#000000;stroke-width:1.30324924;stroke-linecap:butt;stroke-linejoin:miter;stroke-miterlimit:4;stroke-dasharray:none;stroke-opacity:1"
       d="m 174.72721,223.72481 c 1.36391,8.04208 13.57978,9.59858 19.56916,10.4416 5.98938,0.84302 5.75217,0.97274 6.28644,-7.14269 0.53427,-8.11543 1.83751,-24.44155 2.43347,-32.36668 0.59597,-7.92512 0.47148,-7.38051 -1.783,-7.31562 -2.25448,0.0649 -6.64044,-0.32403 -8.47873,-0.5186 -1.83828,-0.19457 -1.12671,-0.19457 -5.51357,7.06687 -4.38686,7.26143 -13.87768,21.79304 -12.51377,29.83512 z"
       id="path1605-3"
       inkscape:connector-curvature="0"
       inkscape:original-d="m 163.87507,230.21036 c 12.21608,1.55627 24.43195,3.11277 36.64761,4.66951 -0.23698,0.12947 -0.47419,0.25919 -0.71159,0.38912 1.30618,-16.36069 2.60941,-32.68681 3.91381,-49.02987 2.1e-4,0.5186 -0.23699,1.03744 -0.3558,1.5565 -4.39028,-0.38956 -8.77624,-0.77848 -13.16468,-1.16737 0.71185,-2.4e-4 1.42342,-2.4e-4 2.13482,0 -9.48508,14.5229 -18.97591,29.0545 -28.46417,43.58211 z"
       inkscape:path-effect="#path-effect1607-5" />
    <path
       style="opacity:1;fill:#000000;fill-opacity:1;stroke:#00010a;stroke-width:10.27837276;stroke-linecap:round;stroke-linejoin:miter;stroke-miterlimit:4;stroke-dasharray:none;stroke-opacity:1"
       d="m 716.4454,984.30015 c -48.88817,-7.6169 -69.94392,-17.4648 -77.86257,-36.4168 -5.51894,-13.20868 -1.4634,-30.73741 14.36409,-62.08396 11.4745,-22.7254 60.84764,-100.26032 63.84435,-100.26032 0.90564,0 0.14251,2.50536 -1.69583,5.56746 -39.94197,66.53048 -49.79577,85.58169 -55.20553,106.73366 -5.56259,21.74951 -3.93441,32.42941 6.63833,43.54367 11.81629,12.4215 39.80023,21.94805 73.73659,25.10211 l 12.54006,1.16548 -0.81521,8.48401 c -1.24173,12.923 -2.76212,13.27224 -35.54428,8.16469 z"
       id="path1640"
       inkscape:connector-curvature="0"
       transform="matrix(0.26458333,0,0,0.26458333,0,-20.50002)" />
    <path
       style="fill:none;stroke:#000000;stroke-width:3.17499995;stroke-linecap:butt;stroke-linejoin:miter;stroke-miterlimit:4;stroke-dasharray:none;stroke-opacity:1"
       d="m 89.374704,163.22435 c -8.639886,-3.75449 -17.279893,-7.50903 -26.283469,-3.94742 -9.003575,3.56161 -18.370553,14.43939 -23.205318,26.37509 -4.834765,11.93569 -5.136923,24.92846 -5.439091,37.54398 -0.302167,12.61552 -0.604326,24.85295 19.188065,29.91433 19.792391,5.06137 59.677299,2.94626 99.865119,2.03977 40.18781,-0.90649 80.67822,-0.60432 121.16807,-0.30216"
       id="path1656"
       inkscape:connector-curvature="0"
       inkscape:path-effect="#path-effect1658"
       inkscape:original-d="m 89.374704,163.22435 c -8.639747,-3.75481 -17.279755,-7.50935 -25.920031,-11.26363 -9.36699,10.87784 -18.73397,21.75562 -28.101355,32.63383 -0.301908,12.99317 -0.604065,25.98594 -0.906495,38.9793 -0.301908,12.23768 -0.604065,24.47511 -0.906494,36.71307 39.88694,-2.11547 79.771851,-4.23058 119.657381,-6.34547 40.49011,0.30189 80.98052,0.60407 121.47037,0.90649" />
    <path
       style="fill:none;stroke:#000000;stroke-width:1.58749998;stroke-linecap:butt;stroke-linejoin:miter;stroke-miterlimit:4;stroke-dasharray:none;stroke-opacity:1"
       d="m 274.66808,254.84794 c 3.77717,-11.63367 7.55424,-23.26703 7.32777,-27.57287 -0.22647,-4.30584 -4.45689,-1.28411 -8.30971,4.53282 -3.85281,5.81694 -7.32746,14.42801 -10.80249,23.04005"
       id="path1660"
       inkscape:connector-curvature="0"
       inkscape:path-effect="#path-effect1662"
       inkscape:original-d="m 274.66808,254.84794 c 3.77733,-11.63362 7.55439,-23.26698 11.33121,-34.90007 -4.22995,3.02131 -8.46037,6.04304 -12.69095,9.06496 -3.47488,8.61205 -6.94952,17.22313 -10.42469,25.83511" />
    <path
       style="display:inline;fill:none;stroke:#000000;stroke-width:1.58749998;stroke-linecap:butt;stroke-linejoin:miter;stroke-miterlimit:4;stroke-dasharray:none;stroke-opacity:1"
       d="m 262.88365,254.84794 c 3.77717,-11.63367 7.55424,-23.26703 7.32777,-27.57287 -0.22647,-4.30584 -4.45689,-1.28411 -8.30971,4.53282 -3.85281,5.81694 -7.32746,14.42801 -10.80249,23.04005"
       id="path1660-4"
       inkscape:connector-curvature="0"
       inkscape:path-effect="#path-effect1662-9"
       inkscape:original-d="m 262.88365,254.84794 c 3.77733,-11.63362 7.55439,-23.26698 11.33121,-34.90007 -4.22995,3.02131 -8.46037,6.04304 -12.69095,9.06496 -3.47488,8.61205 -6.94952,17.22313 -10.42469,25.83511" />
    <path
       style="fill:none;stroke:#000000;stroke-width:1.58749998;stroke-linecap:butt;stroke-linejoin:miter;stroke-miterlimit:4;stroke-dasharray:none;stroke-opacity:1"
       d="m 141.41327,205.21733 c -18.5073,12.91734 -37.01492,25.8349 -45.688162,18.83604 -8.673239,-6.99887 -7.511816,-33.91408 -6.350404,-60.82902"
       id="path1686"
       inkscape:connector-curvature="0"
       inkscape:path-effect="#path-effect1688"
       inkscape:original-d="m 141.41327,205.21733 c -18.50734,12.91729 -37.01496,25.83485 -55.522837,38.75267 1.161688,-26.91549 2.323112,-53.8307 3.484271,-80.74565"
       sodipodi:nodetypes="ccc" />
    <path
       style="display:inline;fill:none;stroke:#000000;stroke-width:1.58749998;stroke-linecap:butt;stroke-linejoin:miter;stroke-miterlimit:4;stroke-dasharray:none;stroke-opacity:1"
       d="m 128.38946,183.6971 c -24.70168,14.73035 -49.403678,29.4609 -59.607782,27.484 -10.204104,-1.9769 -5.910072,-20.66112 -1.61611,-39.34504"
       id="path1686-9"
       inkscape:connector-curvature="0"
       inkscape:path-effect="#path-effect1688-2"
       inkscape:original-d="m 128.38946,183.6971 c -24.70172,14.73028 -49.403722,29.46083 -74.105992,44.19164 4.294299,-18.6845 8.588331,-37.36872 12.8821,-56.05268"
       sodipodi:nodetypes="ccc" />
    <path
       style="fill:none;stroke:#000000;stroke-width:2.11666656;stroke-linecap:butt;stroke-linejoin:miter;stroke-miterlimit:4;stroke-dasharray:none;stroke-opacity:1"
       d="m 34.900071,221.76086 c 19.94313,2.11518 39.88603,4.23034 49.781953,5.36331 9.895922,1.13298 9.744841,1.28406 8.988146,3.93248 -0.756695,2.64842 -2.114057,7.77623 24.02494,12.1579 26.139,4.38167 79.77004,8.00743 133.40411,11.63339"
       id="path1716"
       inkscape:connector-curvature="0"
       inkscape:path-effect="#path-effect1718"
       inkscape:original-d="m 34.900071,221.76086 c 19.943161,2.11489 39.886061,4.23005 59.828693,6.34547 -0.150817,0.15082 -0.3019,0.3019 -0.453247,0.45325 -1.36186,5.14554 -2.719223,10.27335 -4.079229,15.41042 53.637842,3.62594 107.268882,7.25169 160.902932,10.87794" />
    <path
       style="opacity:1;fill:#000000;fill-opacity:1;stroke:#00010a;stroke-width:13.70449638;stroke-linecap:round;stroke-linejoin:miter;stroke-miterlimit:4;stroke-dasharray:none;stroke-opacity:1"
       d="m 269.33619,1038.8719 c -42.53821,-3.3975 -69.19549,-8.9073 -90.19666,-18.6426 -31.75901,-14.7223 -43.60459,-35.97364 -44.07809,-79.07747 -0.11035,-10.04467 0.24198,-18.70997 0.78294,-19.25622 1.25771,-1.27001 200.20031,19.86472 209.89726,22.2985 3.2002,0.8032 3.60137,2.07726 3.43748,10.91701 -0.20733,11.18332 2.57625,15.5717 14.84144,23.39769 30.70938,19.5946 146.05696,35.89809 361.84668,51.14429 21.67023,1.5311 43.25482,3.3521 47.96574,4.0466 4.71092,0.6945 -44.23983,1.8239 -108.77945,2.5098 -64.53961,0.6858 -138.54389,1.95 -164.45396,2.8092 -57.69641,1.9134 -206.65408,1.8188 -231.26338,-0.1468 z"
       id="path1720"
       inkscape:connector-curvature="0"
       transform="matrix(0.26458333,0,0,0.26458333,0,-20.50002)" />
    <path
       style="opacity:1;fill:#000000;fill-opacity:1;stroke:#00010a;stroke-width:13.70449638;stroke-linecap:round;stroke-linejoin:miter;stroke-miterlimit:4;stroke-dasharray:none;stroke-opacity:1"
       d="m 956.27409,1034.085 c 0,-2.8287 16.93426,-41.17601 25.83834,-58.51044 12.66941,-24.66472 29.24527,-44.86763 34.26647,-41.7644 3.6863,2.27826 -1.762,27.05752 -16.0769,73.11884 l -8.91014,28.6704 -17.55888,0.023 c -9.65739,0.013 -17.55889,-0.6792 -17.55889,-1.5378 z"
       id="path1724"
       inkscape:connector-curvature="0"
       transform="matrix(0.26458333,0,0,0.26458333,0,-20.50002)" />
    <path
       style="opacity:1;fill:#000000;fill-opacity:1;stroke:#00010a;stroke-width:13.70449638;stroke-linecap:round;stroke-linejoin:miter;stroke-miterlimit:4;stroke-dasharray:none;stroke-opacity:1"
       d="m 1000.8137,1034.085 c 0,-2.8287 16.9343,-41.17601 25.8383,-58.51044 12.6695,-24.66472 29.2453,-44.86763 34.2665,-41.7644 3.6863,2.27826 -1.762,27.05752 -16.0769,73.11884 l -8.9101,28.6704 -17.5589,0.023 c -9.6574,0.013 -17.5589,-0.6792 -17.5589,-1.5378 z"
       id="path1726"
       inkscape:connector-curvature="0"
       transform="matrix(0.26458333,0,0,0.26458333,0,-20.50002)" />
    <path
       style="opacity:1;fill:#000000;fill-opacity:1;stroke:#00010a;stroke-width:3.4261241;stroke-linecap:round;stroke-linejoin:miter;stroke-miterlimit:4;stroke-dasharray:none;stroke-opacity:1"
       d="m 781.21336,1034.2796 c 0,-0.9931 0.0883,-1.0224 2.46252,-0.8174 1.35439,0.117 7.0878,0.5563 12.7409,0.9763 l 10.27838,0.7636 -12.7409,0.054 -12.7409,0.054 z"
       id="path1730"
       inkscape:connector-curvature="0"
       transform="matrix(0.26458333,0,0,0.26458333,0,-20.50002)" />
  </g>
</svg>
